<?xml version="1.0" standalone="no"?>
<!DOCTYPE svg PUBLIC "-//W3C//DTD SVG 20010904//EN"
 "http://www.w3.org/TR/2001/REC-SVG-20010904/DTD/svg10.dtd">
<svg version="1.0" xmlns="http://www.w3.org/2000/svg"
 width="200.000000pt" height="200.000000pt" viewBox="0 0 200.000000 200.000000"
 preserveAspectRatio="xMidYMid meet">

<g transform="translate(0.000000,200.000000) scale(0.100000,-0.100000)"
fill="#000000" stroke="none">
<path d="M607 1709 c-39 -11 -54 -25 -67 -65 -15 -45 -5 -100 24 -129 l23 -23
-54 -4 c-57 -5 -92 -28 -119 -80 -21 -40 -74 -285 -74 -341 0 -86 48 -137 128
-137 26 0 37 -13 105 -115 43 -63 77 -117 77 -119 0 -2 -57 -9 -127 -16 -145
-15 -168 -21 -175 -47 -10 -36 9 -63 43 -63 18 0 287 27 598 61 594 63 591 63
591 110 0 33 -30 51 -74 45 -23 -3 -73 -8 -111 -12 l-70 -6 -10 33 c-8 28 -38
55 -160 146 -262 197 -238 184 -355 193 -56 4 -103 10 -106 13 -6 6 26 139 36
150 3 4 38 -7 75 -25 l69 -32 130 16 c135 18 146 22 146 70 0 45 -26 51 -140
34 l-100 -15 -123 59 c-67 33 -128 60 -135 60 -7 0 -10 5 -7 10 3 6 15 10 25
10 10 0 30 14 44 31 35 41 37 116 4 154 -28 31 -73 45 -111 34z m296 -765 c40
-21 288 -186 284 -190 -1 -1 -94 -13 -207 -25 -164 -18 -205 -19 -208 -9 -3 7
-35 58 -73 114 -38 55 -66 102 -64 105 4 3 88 11 213 19 13 1 37 -5 55 -14z"/>
<path d="M1180 1340 l0 -30 340 0 340 0 0 30 0 30 -340 0 -340 0 0 -30z"/>
<path d="M995 601 c-38 -9 -117 -36 -175 -58 -126 -49 -194 -63 -314 -63 -92
0 -214 23 -288 54 -49 21 -48 21 -48 -14 0 -39 23 -53 130 -81 65 -17 113 -22
205 -23 145 0 207 13 347 70 141 58 212 74 331 74 116 0 211 -20 322 -67 98
-42 198 -69 288 -78 l67 -7 0 36 0 36 -52 0 c-72 0 -157 22 -274 69 -55 22
-134 47 -176 55 -102 21 -272 20 -363 -3z"/>
</g>
</svg>
