<svg width="243" height="43" viewBox="0 0 243 43" fill="none" xmlns="http://www.w3.org/2000/svg">
<path d="M46.4501 25.1155C46.4501 36.936 36.8279 34.0308 24.9582 34.0308C13.0886 34.0308 3.46631 36.936 3.46631 25.1155C3.46631 13.295 13.0886 3.71262 24.9582 3.71262C36.8279 3.71262 46.4501 13.295 46.4501 25.1155Z" fill="#FFA6A6"/>
<path d="M36.6544 22.5202C36.6823 22.4824 36.7087 22.4464 36.7335 22.4124C40.8517 25.3167 43.8278 27.8101 45.8679 29.9467C47.9818 32.1606 49.0526 33.9519 49.3844 35.3841C49.7064 36.7736 49.341 37.8515 48.4726 38.7349C47.5752 39.6477 46.12 40.3697 44.2492 40.9231C40.5151 42.0277 35.3652 42.3941 30.4746 42.4788C27.2887 42.534 24.2638 42.4703 21.8247 42.4188C20.5106 42.3911 19.3665 42.367 18.4588 42.367C8.68449 42.367 0.635482 33.3407 0.501692 22.0045C12.2146 15.2096 21.1355 10.2901 27.7977 6.88351C34.518 3.44731 38.9103 1.56633 41.543 0.84425C42.198 0.664592 42.7308 0.560493 43.1549 0.51985C43.5844 0.478681 43.871 0.505881 44.0507 0.562066C44.2164 0.613853 44.2645 0.679588 44.2863 0.726377C44.3165 0.791366 44.3419 0.925682 44.2886 1.17583C44.1798 1.68601 43.7985 2.42958 43.1389 3.38849C42.4894 4.33272 41.6055 5.43632 40.5486 6.6566C37.754 9.88333 33.8215 13.847 29.9714 17.7276C27.9804 19.7343 26.0115 21.7188 24.2334 23.5677C21.6402 26.2642 19.443 28.6828 18.2142 30.4367C17.9054 30.8774 17.6507 31.286 17.4648 31.6541C17.2821 32.0156 17.1492 32.3701 17.1149 32.6956C17.0795 33.0316 17.1467 33.3988 17.443 33.6658C17.7161 33.9119 18.0902 33.9842 18.4588 33.9842C23.7426 33.9842 28.3988 30.9417 31.6941 27.9723C33.3495 26.4807 34.6803 24.9904 35.5974 23.8734C36.0562 23.3145 36.4123 22.848 36.6544 22.5202Z" fill="#5654CD" stroke="#99F3FF"/>
<path d="M75.4609 14.8555L70.8203 29H67.082L73.4219 11.9375H75.8008L75.4609 14.8555ZM79.3164 29L74.6641 14.8555L74.2891 11.9375H76.6914L83.0664 29H79.3164ZM79.1055 22.6484V25.4023H70.0938V22.6484H79.1055ZM91.9258 26.2344V11H95.3242V29H92.2656L91.9258 26.2344ZM83.9102 22.8125V22.5664C83.9102 21.5977 84.0195 20.7188 84.2383 19.9297C84.457 19.1328 84.7773 18.4492 85.1992 17.8789C85.6211 17.3086 86.1406 16.8672 86.7578 16.5547C87.375 16.2422 88.0781 16.0859 88.8672 16.0859C89.6094 16.0859 90.2578 16.2422 90.8125 16.5547C91.375 16.8672 91.8516 17.3125 92.2422 17.8906C92.6406 18.4609 92.9609 19.1367 93.2031 19.918C93.4453 20.6914 93.6211 21.5391 93.7305 22.4609V23C93.6211 23.8828 93.4453 24.7031 93.2031 25.4609C92.9609 26.2188 92.6406 26.8828 92.2422 27.4531C91.8516 28.0156 91.375 28.4531 90.8125 28.7656C90.25 29.0781 89.5938 29.2344 88.8438 29.2344C88.0547 29.2344 87.3516 29.0742 86.7344 28.7539C86.125 28.4336 85.6094 27.9844 85.1875 27.4062C84.7734 26.8281 84.457 26.1484 84.2383 25.3672C84.0195 24.5859 83.9102 23.7344 83.9102 22.8125ZM87.2852 22.5664V22.8125C87.2852 23.3359 87.3242 23.8242 87.4023 24.2773C87.4883 24.7305 87.625 25.1328 87.8125 25.4844C88.0078 25.8281 88.2578 26.0977 88.5625 26.293C88.875 26.4805 89.2539 26.5742 89.6992 26.5742C90.2773 26.5742 90.7539 26.4453 91.1289 26.1875C91.5039 25.9219 91.7891 25.5586 91.9844 25.0977C92.1875 24.6367 92.3047 24.1055 92.3359 23.5039V21.9688C92.3125 21.4766 92.2422 21.0352 92.125 20.6445C92.0156 20.2461 91.8516 19.9062 91.6328 19.625C91.4219 19.3438 91.1562 19.125 90.8359 18.9688C90.5234 18.8125 90.1523 18.7344 89.7227 18.7344C89.2852 18.7344 88.9102 18.8359 88.5977 19.0391C88.2852 19.2344 88.0312 19.5039 87.8359 19.8477C87.6484 20.1914 87.5078 20.5977 87.4141 21.0664C87.3281 21.5273 87.2852 22.0273 87.2852 22.5664ZM102.273 26.5391L105.086 16.3203H108.613L104.336 29H102.203L102.273 26.5391ZM100.34 16.3203L103.164 26.5508L103.223 29H101.078L96.8008 16.3203H100.34ZM115.797 29.2344C114.812 29.2344 113.93 29.0781 113.148 28.7656C112.367 28.4453 111.703 28.0039 111.156 27.4414C110.617 26.8789 110.203 26.2266 109.914 25.4844C109.625 24.7344 109.48 23.9375 109.48 23.0938V22.625C109.48 21.6641 109.617 20.7852 109.891 19.9883C110.164 19.1914 110.555 18.5 111.062 17.9141C111.578 17.3281 112.203 16.8789 112.938 16.5664C113.672 16.2461 114.5 16.0859 115.422 16.0859C116.32 16.0859 117.117 16.2344 117.812 16.5312C118.508 16.8281 119.09 17.25 119.559 17.7969C120.035 18.3438 120.395 19 120.637 19.7656C120.879 20.5234 121 21.3672 121 22.2969V23.7031H110.922V21.4531H117.684V21.1953C117.684 20.7266 117.598 20.3086 117.426 19.9414C117.262 19.5664 117.012 19.2695 116.676 19.0508C116.34 18.832 115.91 18.7227 115.387 18.7227C114.941 18.7227 114.559 18.8203 114.238 19.0156C113.918 19.2109 113.656 19.4844 113.453 19.8359C113.258 20.1875 113.109 20.6016 113.008 21.0781C112.914 21.5469 112.867 22.0625 112.867 22.625V23.0938C112.867 23.6016 112.938 24.0703 113.078 24.5C113.227 24.9297 113.434 25.3008 113.699 25.6133C113.973 25.9258 114.301 26.168 114.684 26.3398C115.074 26.5117 115.516 26.5977 116.008 26.5977C116.617 26.5977 117.184 26.4805 117.707 26.2461C118.238 26.0039 118.695 25.6406 119.078 25.1562L120.719 26.9375C120.453 27.3203 120.09 27.6875 119.629 28.0391C119.176 28.3906 118.629 28.6797 117.988 28.9062C117.348 29.125 116.617 29.2344 115.797 29.2344ZM126.227 19.0273V29H122.852V16.3203H126.016L126.227 19.0273ZM125.734 22.2148H124.82C124.82 21.2773 124.941 20.4336 125.184 19.6836C125.426 18.9258 125.766 18.2812 126.203 17.75C126.641 17.2109 127.16 16.8008 127.762 16.5195C128.371 16.2305 129.051 16.0859 129.801 16.0859C130.395 16.0859 130.938 16.1719 131.43 16.3438C131.922 16.5156 132.344 16.7891 132.695 17.1641C133.055 17.5391 133.328 18.0352 133.516 18.6523C133.711 19.2695 133.809 20.0234 133.809 20.9141V29H130.41V20.9023C130.41 20.3398 130.332 19.9023 130.176 19.5898C130.02 19.2773 129.789 19.0586 129.484 18.9336C129.188 18.8008 128.82 18.7344 128.383 18.7344C127.93 18.7344 127.535 18.8242 127.199 19.0039C126.871 19.1836 126.598 19.4336 126.379 19.7539C126.168 20.0664 126.008 20.4336 125.898 20.8555C125.789 21.2773 125.734 21.7305 125.734 22.2148ZM142.586 16.3203V18.7109H135.203V16.3203H142.586ZM137.031 13.1914H140.406V25.1797C140.406 25.5469 140.453 25.8281 140.547 26.0234C140.648 26.2188 140.797 26.3555 140.992 26.4336C141.188 26.5039 141.434 26.5391 141.73 26.5391C141.941 26.5391 142.129 26.5312 142.293 26.5156C142.465 26.4922 142.609 26.4688 142.727 26.4453L142.738 28.9297C142.449 29.0234 142.137 29.0977 141.801 29.1523C141.465 29.207 141.094 29.2344 140.688 29.2344C139.945 29.2344 139.297 29.1133 138.742 28.8711C138.195 28.6211 137.773 28.2227 137.477 27.6758C137.18 27.1289 137.031 26.4102 137.031 25.5195V13.1914ZM152.008 25.9648V16.3203H155.383V29H152.207L152.008 25.9648ZM152.383 23.3633L153.379 23.3398C153.379 24.1836 153.281 24.9688 153.086 25.6953C152.891 26.4141 152.598 27.0391 152.207 27.5703C151.816 28.0938 151.324 28.5039 150.73 28.8008C150.137 29.0898 149.438 29.2344 148.633 29.2344C148.016 29.2344 147.445 29.1484 146.922 28.9766C146.406 28.7969 145.961 28.5195 145.586 28.1445C145.219 27.7617 144.93 27.2734 144.719 26.6797C144.516 26.0781 144.414 25.3555 144.414 24.5117V16.3203H147.789V24.5352C147.789 24.9102 147.832 25.2266 147.918 25.4844C148.012 25.7422 148.141 25.9531 148.305 26.1172C148.469 26.2812 148.66 26.3984 148.879 26.4688C149.105 26.5391 149.355 26.5742 149.629 26.5742C150.324 26.5742 150.871 26.4336 151.27 26.1523C151.676 25.8711 151.961 25.4883 152.125 25.0039C152.297 24.5117 152.383 23.9648 152.383 23.3633ZM161.336 19.0859V29H157.961V16.3203H161.137L161.336 19.0859ZM165.156 16.2383L165.098 19.3672C164.934 19.3438 164.734 19.3242 164.5 19.3086C164.273 19.2852 164.066 19.2734 163.879 19.2734C163.402 19.2734 162.988 19.3359 162.637 19.4609C162.293 19.5781 162.004 19.7539 161.77 19.9883C161.543 20.2227 161.371 20.5078 161.254 20.8438C161.145 21.1797 161.082 21.5625 161.066 21.9922L160.387 21.7812C160.387 20.9609 160.469 20.207 160.633 19.5195C160.797 18.8242 161.035 18.2188 161.348 17.7031C161.668 17.1875 162.059 16.7891 162.52 16.5078C162.98 16.2266 163.508 16.0859 164.102 16.0859C164.289 16.0859 164.48 16.1016 164.676 16.1328C164.871 16.1562 165.031 16.1914 165.156 16.2383ZM172.352 29.2344C171.367 29.2344 170.484 29.0781 169.703 28.7656C168.922 28.4453 168.258 28.0039 167.711 27.4414C167.172 26.8789 166.758 26.2266 166.469 25.4844C166.18 24.7344 166.035 23.9375 166.035 23.0938V22.625C166.035 21.6641 166.172 20.7852 166.445 19.9883C166.719 19.1914 167.109 18.5 167.617 17.9141C168.133 17.3281 168.758 16.8789 169.492 16.5664C170.227 16.2461 171.055 16.0859 171.977 16.0859C172.875 16.0859 173.672 16.2344 174.367 16.5312C175.062 16.8281 175.645 17.25 176.113 17.7969C176.59 18.3438 176.949 19 177.191 19.7656C177.434 20.5234 177.555 21.3672 177.555 22.2969V23.7031H167.477V21.4531H174.238V21.1953C174.238 20.7266 174.152 20.3086 173.98 19.9414C173.816 19.5664 173.566 19.2695 173.23 19.0508C172.895 18.832 172.465 18.7227 171.941 18.7227C171.496 18.7227 171.113 18.8203 170.793 19.0156C170.473 19.2109 170.211 19.4844 170.008 19.8359C169.812 20.1875 169.664 20.6016 169.562 21.0781C169.469 21.5469 169.422 22.0625 169.422 22.625V23.0938C169.422 23.6016 169.492 24.0703 169.633 24.5C169.781 24.9297 169.988 25.3008 170.254 25.6133C170.527 25.9258 170.855 26.168 171.238 26.3398C171.629 26.5117 172.07 26.5977 172.562 26.5977C173.172 26.5977 173.738 26.4805 174.262 26.2461C174.793 26.0039 175.25 25.6406 175.633 25.1562L177.273 26.9375C177.008 27.3203 176.645 27.6875 176.184 28.0391C175.73 28.3906 175.184 28.6797 174.543 28.9062C173.902 29.125 173.172 29.2344 172.352 29.2344ZM187.316 11.9375V29H183.812V11.9375H187.316ZM192.566 11.9375V14.6914H178.645V11.9375H192.566ZM197.652 11V29H194.277V11H197.652ZM197.172 22.2148H196.246C196.254 21.332 196.371 20.5195 196.598 19.7773C196.824 19.0273 197.148 18.3789 197.57 17.832C197.992 17.2773 198.496 16.8477 199.082 16.543C199.676 16.2383 200.332 16.0859 201.051 16.0859C201.676 16.0859 202.242 16.1758 202.75 16.3555C203.266 16.5273 203.707 16.8086 204.074 17.1992C204.449 17.582 204.738 18.0859 204.941 18.7109C205.145 19.3359 205.246 20.0938 205.246 20.9844V29H201.848V20.9609C201.848 20.3984 201.766 19.957 201.602 19.6367C201.445 19.3086 201.215 19.0781 200.91 18.9453C200.613 18.8047 200.246 18.7344 199.809 18.7344C199.324 18.7344 198.91 18.8242 198.566 19.0039C198.23 19.1836 197.961 19.4336 197.758 19.7539C197.555 20.0664 197.406 20.4336 197.312 20.8555C197.219 21.2773 197.172 21.7305 197.172 22.2148ZM211.375 16.3203V29H207.988V16.3203H211.375ZM207.777 13.0156C207.777 12.5234 207.949 12.1172 208.293 11.7969C208.637 11.4766 209.098 11.3164 209.676 11.3164C210.246 11.3164 210.703 11.4766 211.047 11.7969C211.398 12.1172 211.574 12.5234 211.574 13.0156C211.574 13.5078 211.398 13.9141 211.047 14.2344C210.703 14.5547 210.246 14.7148 209.676 14.7148C209.098 14.7148 208.637 14.5547 208.293 14.2344C207.949 13.9141 207.777 13.5078 207.777 13.0156ZM217.539 19.0859V29H214.164V16.3203H217.34L217.539 19.0859ZM221.359 16.2383L221.301 19.3672C221.137 19.3438 220.938 19.3242 220.703 19.3086C220.477 19.2852 220.27 19.2734 220.082 19.2734C219.605 19.2734 219.191 19.3359 218.84 19.4609C218.496 19.5781 218.207 19.7539 217.973 19.9883C217.746 20.2227 217.574 20.5078 217.457 20.8438C217.348 21.1797 217.285 21.5625 217.27 21.9922L216.59 21.7812C216.59 20.9609 216.672 20.207 216.836 19.5195C217 18.8242 217.238 18.2188 217.551 17.7031C217.871 17.1875 218.262 16.7891 218.723 16.5078C219.184 16.2266 219.711 16.0859 220.305 16.0859C220.492 16.0859 220.684 16.1016 220.879 16.1328C221.074 16.1562 221.234 16.1914 221.359 16.2383ZM229.809 25.4961C229.809 25.2539 229.738 25.0352 229.598 24.8398C229.457 24.6445 229.195 24.4648 228.812 24.3008C228.438 24.1289 227.895 23.9727 227.184 23.832C226.543 23.6914 225.945 23.5156 225.391 23.3047C224.844 23.0859 224.367 22.8242 223.961 22.5195C223.562 22.2148 223.25 21.8555 223.023 21.4414C222.797 21.0195 222.684 20.5391 222.684 20C222.684 19.4688 222.797 18.9688 223.023 18.5C223.258 18.0312 223.59 17.6172 224.02 17.2578C224.457 16.8906 224.988 16.6055 225.613 16.4023C226.246 16.1914 226.957 16.0859 227.746 16.0859C228.848 16.0859 229.793 16.2617 230.582 16.6133C231.379 16.9648 231.988 17.4492 232.41 18.0664C232.84 18.6758 233.055 19.3711 233.055 20.1523H229.68C229.68 19.8242 229.609 19.5312 229.469 19.2734C229.336 19.0078 229.125 18.8008 228.836 18.6523C228.555 18.4961 228.188 18.418 227.734 18.418C227.359 18.418 227.035 18.4844 226.762 18.6172C226.488 18.7422 226.277 18.9141 226.129 19.1328C225.988 19.3438 225.918 19.5781 225.918 19.8359C225.918 20.0312 225.957 20.207 226.035 20.3633C226.121 20.5117 226.258 20.6484 226.445 20.7734C226.633 20.8984 226.875 21.0156 227.172 21.125C227.477 21.2266 227.852 21.3203 228.297 21.4062C229.211 21.5938 230.027 21.8398 230.746 22.1445C231.465 22.4414 232.035 22.8477 232.457 23.3633C232.879 23.8711 233.09 24.5391 233.09 25.3672C233.09 25.9297 232.965 26.4453 232.715 26.9141C232.465 27.3828 232.105 27.793 231.637 28.1445C231.168 28.4883 230.605 28.7578 229.949 28.9531C229.301 29.1406 228.57 29.2344 227.758 29.2344C226.578 29.2344 225.578 29.0234 224.758 28.6016C223.945 28.1797 223.328 27.6445 222.906 26.9961C222.492 26.3398 222.285 25.668 222.285 24.9805H225.484C225.5 25.4414 225.617 25.8125 225.836 26.0938C226.062 26.375 226.348 26.5781 226.691 26.7031C227.043 26.8281 227.422 26.8906 227.828 26.8906C228.266 26.8906 228.629 26.832 228.918 26.7148C229.207 26.5898 229.426 26.4258 229.574 26.2227C229.73 26.0117 229.809 25.7695 229.809 25.4961ZM241.492 16.3203V18.7109H234.109V16.3203H241.492ZM235.938 13.1914H239.312V25.1797C239.312 25.5469 239.359 25.8281 239.453 26.0234C239.555 26.2188 239.703 26.3555 239.898 26.4336C240.094 26.5039 240.34 26.5391 240.637 26.5391C240.848 26.5391 241.035 26.5312 241.199 26.5156C241.371 26.4922 241.516 26.4688 241.633 26.4453L241.645 28.9297C241.355 29.0234 241.043 29.0977 240.707 29.1523C240.371 29.207 240 29.2344 239.594 29.2344C238.852 29.2344 238.203 29.1133 237.648 28.8711C237.102 28.6211 236.68 28.2227 236.383 27.6758C236.086 27.1289 235.938 26.4102 235.938 25.5195V13.1914Z" fill="black"/>
</svg>
