<?xml version="1.0" standalone="no"?>
<!DOCTYPE svg PUBLIC "-//W3C//DTD SVG 20010904//EN"
 "http://www.w3.org/TR/2001/REC-SVG-20010904/DTD/svg10.dtd">
<svg version="1.0" xmlns="http://www.w3.org/2000/svg"
 width="1600.000000pt" height="1690.000000pt" viewBox="0 0 1600.000000 1690.000000"
 preserveAspectRatio="xMidYMid meet">

<g transform="translate(0.000000,1690.000000) scale(0.100000,-0.100000)"
fill="#000000" stroke="none">
<path d="M7271 15549 c-30 -5 -57 -12 -60 -14 -3 -3 7 -18 22 -33 l27 -27 42
43 c24 23 38 41 33 41 -6 -1 -34 -5 -64 -10z"/>
<path d="M7310 15515 l-44 -45 25 -27 24 -28 -27 24 c-28 24 -28 24 -50 5
l-23 -19 19 23 20 23 -31 31 -31 31 -64 -23 c-114 -42 -221 -108 -308 -192
-74 -70 -259 -287 -363 -424 l-46 -61 32 -34 32 -34 -32 29 c-40 36 -39 36
-130 -92 -120 -168 -159 -225 -231 -339 -100 -159 -102 -165 -26 -93 57 54 54
49 -17 -25 -48 -50 -99 -112 -114 -140 -109 -197 -199 -374 -262 -515 -14 -30
-31 -68 -38 -85 -78 -174 -192 -482 -259 -705 -148 -487 -254 -1077 -301
-1680 -18 -233 -35 -599 -35 -765 l0 -119 48 44 47 45 -47 -50 -48 -51 0 -159
c0 -256 43 -1189 56 -1234 3 -10 24 4 67 45 l62 59 -64 -67 -64 -66 22 -244
c37 -412 115 -1084 127 -1097 3 -3 23 13 47 35 l42 39 -42 -45 c-27 -29 -43
-55 -43 -71 0 -14 14 -113 30 -220 17 -106 37 -239 45 -294 15 -99 29 -180 79
-464 14 -80 25 -146 23 -147 -1 -1 -78 -37 -172 -79 -93 -42 -217 -98 -275
-125 -58 -26 -132 -60 -164 -74 l-60 -27 45 -47 44 -47 -45 43 c-25 23 -51 42
-57 42 -6 0 -55 -21 -109 -46 -55 -25 -137 -63 -184 -84 -47 -21 -182 -81
-300 -135 -118 -53 -260 -117 -315 -142 -55 -25 -102 -47 -104 -49 -3 -3 15
-26 40 -52 l44 -47 -50 47 -50 47 -243 -110 -242 -109 -29 33 -30 32 -33 -30
-33 -30 29 32 29 32 -44 48 c-170 187 -220 238 -264 272 -126 96 -298 133
-450 97 -76 -18 -358 -144 -429 -191 -148 -98 -236 -268 -236 -453 0 -48 5
-105 11 -127 12 -43 366 -848 431 -979 75 -151 186 -246 342 -291 77 -23 214
-23 290 -1 63 18 319 131 379 166 32 19 35 24 24 41 -6 10 -15 19 -18 19 -3 0
-6 10 -5 22 1 15 9 24 25 28 13 3 27 13 30 22 5 14 8 14 19 2 7 -8 10 -14 7
-14 -4 0 1 -8 11 -17 16 -16 18 -15 46 16 28 31 28 34 14 56 -22 33 -20 38 9
33 29 -6 46 11 69 66 19 45 20 66 5 66 -5 0 -7 -4 -4 -10 3 -5 1 -10 -4 -10
-14 0 -14 6 1 29 9 15 9 23 -1 35 -7 9 -18 13 -24 9 -6 -3 -7 -1 -3 6 4 6 20
18 37 26 25 13 29 21 29 55 0 43 -8 48 -54 30 -23 -8 -26 -7 -26 10 0 11 -5
20 -11 20 -15 0 -7 41 11 51 8 5 26 13 40 18 l25 9 -15 143 c-9 79 -14 147
-10 151 4 6 154 76 430 200 25 11 77 35 115 52 39 18 85 38 103 45 32 13 32
14 15 35 -18 21 -18 21 3 3 21 -18 27 -16 276 97 141 63 288 130 329 149 41
19 157 72 259 117 102 45 273 122 380 171 107 49 197 85 201 81 4 -4 23 -83
43 -177 20 -93 64 -281 97 -417 50 -201 63 -246 76 -241 12 5 13 3 3 -13 -10
-16 -2 -56 45 -228 105 -388 285 -955 310 -976 8 -6 11 -18 8 -26 -3 -8 -1
-27 5 -42 6 -15 27 -70 47 -123 56 -150 130 -209 258 -209 73 0 128 22 176 71
73 74 89 175 47 296 -13 37 -36 101 -50 142 -14 41 -26 80 -26 86 0 7 24 17
54 23 69 14 129 39 122 51 -3 5 3 7 13 4 47 -12 197 118 264 229 61 101 79
173 85 329 l4 137 -26 -5 c-52 -10 -99 51 -81 107 8 25 54 38 66 19 15 -23 11
-69 -6 -69 -9 0 -15 10 -15 26 0 31 -24 28 -28 -5 -7 -42 46 -69 76 -39 17 17
17 389 0 407 -10 11 -10 13 0 7 9 -6 12 133 12 677 l0 684 70 32 c39 17 72 31
74 31 2 0 57 25 122 57 66 31 124 57 129 59 6 1 34 13 62 25 29 13 55 20 58
17 3 -2 5 -312 5 -688 l0 -684 53 49 52 50 -52 -55 -53 -56 0 -429 c0 -482 4
-514 67 -644 28 -58 56 -95 117 -156 91 -90 171 -136 287 -163 83 -19 82 -11
24 -169 -137 -370 -241 -615 -369 -872 l-76 -151 -309 0 -308 0 -23 33 c-83
120 -270 137 -379 34 -35 -34 -70 -99 -71 -132 0 -11 28 -49 63 -85 l62 -65
-62 59 c-34 33 -65 57 -69 54 -14 -14 20 -120 61 -190 48 -81 99 -130 180
-171 44 -22 134 -47 168 -47 6 0 -15 28 -48 62 l-60 63 65 -62 66 -63 371 0
c403 0 441 4 537 52 102 51 149 110 258 324 53 104 117 236 143 294 58 131 77
172 83 185 3 6 -5 1 -19 -10 -21 -17 -20 -16 3 10 15 17 45 73 66 125 52 125
129 329 137 360 4 14 14 41 22 60 22 47 156 447 199 595 58 195 64 216 89 305
13 47 34 126 48 175 33 118 112 426 125 490 6 28 14 59 18 70 7 20 7 20 -17 0
l-24 -20 21 25 c32 37 29 29 88 296 92 420 91 412 70 437 -17 19 -17 20 -1 8
9 -8 19 -12 21 -10 7 8 98 501 150 814 l33 200 -44 44 c-25 26 -43 54 -43 67
0 21 23 54 38 54 4 0 15 14 24 30 10 17 25 30 37 30 23 0 23 2 48 193 l17 138
43 19 c24 10 43 25 43 33 0 20 43 57 66 57 10 0 25 -4 33 -9 9 -6 29 -2 55 9
171 76 220 100 241 120 13 12 37 22 52 22 15 0 45 9 65 19 21 11 43 19 50 19
7 0 87 -59 178 -131 91 -72 181 -139 201 -149 86 -45 237 -47 534 -9 258 33
352 53 383 80 15 13 21 17 15 9 -7 -8 -13 -17 -13 -20 0 -23 1219 275 1643
402 68 20 68 20 50 42 l-17 21 23 -21 c22 -20 27 -21 65 -9 22 7 79 24 126 36
66 19 95 33 130 64 44 38 44 39 12 3 l-33 -35 98 28 c54 16 139 41 188 55 123
35 213 90 315 193 102 102 168 219 200 352 23 97 27 194 8 183 -10 -6 -10 -4
0 7 18 19 15 95 -8 180 -10 41 -108 272 -216 514 -108 242 -211 474 -229 515
-54 125 -75 170 -133 290 -50 103 -66 125 -147 205 -153 154 -325 226 -540
226 -121 0 -235 -23 -316 -65 -25 -12 -138 -83 -252 -156 -207 -132 -208 -133
-190 -154 l18 -21 -22 19 c-22 18 -23 18 -105 -34 -199 -128 -753 -498 -968
-649 -198 -138 -305 -217 -610 -446 -14 -11 -44 -35 -65 -52 l-39 -33 29 -32
30 -33 -32 29 c-21 19 -36 25 -46 20 -8 -5 -69 -57 -135 -116 -187 -167 -279
-282 -301 -378 -6 -25 -15 -137 -21 -250 -8 -175 -12 -207 -27 -218 -15 -11
-14 -15 18 -50 l34 -37 -41 38 -40 38 -140 -64 c-76 -35 -149 -67 -161 -71
-28 -9 -27 -17 -8 179 8 83 16 177 19 210 3 33 8 89 11 125 27 304 65 1013 65
1222 0 56 0 56 -24 45 -14 -7 -23 -14 -20 -16 6 -6 -17 -31 -28 -31 -5 0 -7 8
-4 18 3 9 1 24 -4 32 -6 10 -10 11 -10 3 0 -7 -4 -13 -10 -13 -5 0 -7 7 -4 15
4 10 13 13 26 9 17 -5 19 -3 13 16 -4 14 -3 20 3 16 12 -7 23 48 25 121 2 60
18 67 23 10 5 -69 14 -52 14 26 0 48 -4 77 -11 77 -5 0 -7 -4 -4 -10 3 -5 3
-10 -2 -10 -11 0 -37 60 -29 67 3 4 6 -1 6 -9 0 -9 9 -18 20 -21 18 -5 20 0
20 52 0 58 0 58 -40 76 -43 19 -51 36 -36 78 11 28 17 29 59 12 21 -9 20 -23
7 270 -11 234 -29 465 -56 710 -15 136 -19 153 -43 180 -23 26 -23 28 -2 10
l24 -20 -8 59 c-10 85 -13 91 -39 69 -19 -16 -19 -15 2 8 l22 26 -25 144 c-47
274 -105 530 -176 778 -56 194 -63 213 -83 205 -17 -6 -56 12 -73 35 -7 9 -13
31 -13 49 0 26 6 36 29 50 l29 16 -30 81 c-43 116 -121 308 -163 400 -20 44
-48 105 -62 135 -17 38 -55 87 -126 160 l-102 105 93 -90 c106 -101 106 -104
5 83 l-46 84 -41 -39 -41 -38 38 40 c20 23 37 44 37 48 0 21 -266 442 -400
631 -58 83 -192 256 -197 256 -4 0 -23 -15 -43 -32 l-35 -33 37 40 36 40 -121
145 c-199 236 -297 323 -447 392 -89 41 -227 77 -295 78 -6 0 -31 -20 -55 -45z
m108 -486 c83 -24 183 -123 399 -394 768 -962 1190 -2059 1317 -3420 24 -251
30 -355 20 -355 -5 0 -164 25 -354 55 -517 83 -599 95 -644 95 -83 0 -187 -72
-220 -152 -22 -52 -20 -162 3 -213 20 -44 87 -110 129 -126 15 -6 150 -30 302
-55 151 -25 384 -63 517 -84 133 -22 253 -40 267 -40 l26 0 0 -255 c0 -140 -3
-255 -7 -255 -14 0 -210 32 -443 73 -206 36 -253 41 -385 41 -142 0 -155 -2
-232 -30 -196 -73 -345 -208 -429 -389 -73 -158 -69 -94 -66 -1216 3 -911 1
-1007 -13 -1019 -9 -7 -124 -62 -256 -121 l-239 -107 0 536 c0 295 0 787 0
1092 0 595 -4 659 -52 787 -76 206 -250 369 -473 444 -61 21 -89 24 -210 24
-77 0 -165 -5 -195 -12 -30 -7 -143 -26 -250 -43 -107 -17 -234 -37 -281 -45
-48 -8 -92 -15 -98 -15 -17 0 -15 499 2 504 6 2 129 23 272 45 596 95 818 132
829 138 40 22 100 81 122 119 35 59 38 168 6 229 -42 83 -137 144 -221 145
-24 0 -85 -7 -135 -15 -50 -8 -203 -32 -341 -54 -137 -22 -309 -49 -381 -60
-72 -12 -135 -21 -139 -21 -8 0 -3 69 25 380 101 1087 394 1999 910 2825 209
335 596 832 714 917 37 27 138 69 152 64 7 -3 30 -10 52 -17z m-1218 -623 c0
-2 -8 -10 -17 -17 -16 -13 -17 -12 -4 4 13 16 21 21 21 13z m-40 -40 c0 -2 -8
-10 -17 -17 -16 -13 -17 -12 -4 4 13 16 21 21 21 13z m-930 -2429 c0 -2 -10
-12 -22 -23 l-23 -19 19 23 c18 21 26 27 26 19z m7530 -1538 c9 -17 8 -23 -7
-36 -10 -8 -11 -11 -3 -7 13 7 13 5 1 -9 -14 -18 -61 -24 -61 -7 0 6 6 10 14
10 18 0 37 24 39 49 2 26 4 26 17 0z m-105 -9 c3 -5 1 -10 -4 -10 -6 0 -11 5
-11 10 0 6 2 10 4 10 3 0 8 -4 11 -10z m402 -5 c99 -30 127 -66 242 -322 57
-125 119 -261 137 -302 l34 -74 28 24 27 24 -26 -30 -27 -30 23 -50 c39 -86
160 -355 216 -480 45 -102 53 -129 52 -180 0 -74 -19 -120 -73 -179 -51 -56
-3 -40 -820 -267 -41 -11 -83 -23 -94 -26 -15 -4 -10 -14 35 -62 l54 -56 -57
55 -58 54 -87 -22 c-496 -124 -543 -138 -581 -173 -24 -23 -29 -25 -13 -6 32
36 28 35 -165 -12 -421 -104 -864 -194 -1037 -211 l-109 -11 -36 28 c-21 15
-72 56 -115 90 -43 35 -80 63 -84 63 -4 0 -18 -10 -32 -22 l-26 -23 25 28 24
28 -29 24 -28 25 9 190 10 190 40 41 c119 124 630 511 1059 802 86 59 86 59
68 80 l-18 22 22 -19 c22 -19 23 -18 146 65 118 80 123 85 111 105 -18 26 -6
39 17 18 23 -20 49 -12 88 28 17 18 31 29 31 25 0 -20 42 18 54 48 17 40 58
64 78 47 24 -20 53 13 49 57 -2 33 2 42 23 56 27 18 74 14 88 -8 5 -8 14 -7
32 2 l25 14 -19 28 c-31 43 -26 75 18 98 12 6 22 18 22 26 0 8 1 15 3 15 1 0
16 4 34 9 28 8 36 5 71 -25 42 -35 74 -37 65 -4 -3 10 0 21 6 24 17 11 14 21
-15 56 -34 40 -26 48 14 15 19 -16 32 -37 34 -56 l3 -31 133 86 c171 110 202
120 299 91z m-6591 -966 c24 -11 57 -36 73 -55 51 -58 61 -113 61 -343 l0
-204 28 24 27 24 -27 -31 c-26 -27 -28 -37 -28 -109 0 -78 1 -80 38 -120 l37
-40 -37 34 -38 35 -1 -537 c-1 -295 -2 -543 -3 -549 -1 -7 24 -26 54 -41 30
-16 47 -26 38 -23 -10 3 -18 1 -18 -4 0 -6 5 -10 11 -10 5 0 7 -5 4 -10 -4 -6
-9 -8 -13 -6 -4 2 -16 -3 -27 -11 -15 -12 -16 -14 -3 -10 12 4 15 2 11 -8 -4
-11 -10 -12 -24 -4 -26 14 -39 4 -39 -31 0 -20 10 -37 38 -60 20 -17 30 -28
22 -24 -13 7 -13 5 -2 -8 23 -29 3 -53 -40 -49 -16 2 -18 -9 -18 -116 0 -66 4
-123 10 -129 14 -14 16 -82 2 -96 -7 -7 -12 -28 -12 -48 l0 -37 -152 -68 c-84
-37 -184 -83 -223 -100 -38 -18 -124 -58 -190 -88 -66 -30 -123 -52 -126 -49
-15 16 -129 751 -200 1285 -10 79 -13 86 -28 75 -15 -12 -15 -11 0 7 15 19 15
31 -2 175 -33 276 -79 802 -94 1075 -4 66 -9 124 -12 128 -3 5 -22 -6 -42 -25
l-36 -33 38 40 c20 23 37 46 37 53 0 7 4 12 9 12 5 0 24 12 43 27 28 23 30 24
13 4 l-20 -23 30 5 c42 9 237 41 455 76 102 16 196 32 210 34 65 11 126 6 166
-14z m2059 -3 c117 -20 152 -22 164 -13 12 9 13 9 8 0 -9 -15 -16 -14 248 -56
l210 -33 -3 -74 c-5 -154 -34 -535 -57 -759 -8 -79 -15 -155 -15 -169 l0 -26
32 30 c31 28 31 27 -3 -12 -31 -35 -37 -50 -43 -110 -3 -38 -11 -113 -18 -168
l-11 -98 -75 -34 -75 -34 24 -28 24 -27 -26 23 c-14 12 -30 22 -36 22 -6 0
-69 -26 -139 -59 -71 -32 -156 -71 -189 -86 -44 -19 -88 -53 -165 -128 l-105
-102 90 93 c49 50 87 92 84 92 -6 0 -232 -101 -283 -126 -16 -8 -31 -14 -33
-14 -1 0 -3 295 -3 656 0 521 -3 654 -12 648 -10 -6 -10 -4 0 7 9 9 12 70 12
229 l0 216 33 54 c25 42 44 61 86 82 65 34 87 35 276 4z m-2674 -23 c13 -16
12 -17 -3 -4 -10 7 -18 15 -18 17 0 8 8 3 21 -13z m3334 -353 c10 -11 16 -20
13 -20 -3 0 -13 9 -23 20 -10 11 -16 20 -13 20 3 0 13 -9 23 -20z m4365 -784
c0 -2 -8 -10 -17 -17 -16 -13 -17 -12 -4 4 13 16 21 21 21 13z m-1510 -10 c0
-2 -8 -10 -17 -17 -16 -13 -17 -12 -4 4 13 16 21 21 21 13z m-3084 -938 c-3
-13 -13 -72 -22 -133 -22 -151 -69 -432 -98 -599 -14 -76 -25 -141 -24 -145 1
-3 -1 -13 -4 -21 -4 -8 -25 -112 -48 -230 -83 -431 -194 -905 -312 -1335 -95
-347 -104 -373 -141 -395 -38 -24 -66 -25 -112 -6 -67 28 -65 2 -65 738 l0
662 -47 -44 -48 -45 47 50 48 51 2 553 3 553 165 74 c91 41 179 81 195 89 17
7 111 50 210 94 99 45 194 88 210 95 41 20 46 19 41 -6z m410 -316 c1 -7 0 -8
-3 -2 -2 5 -9 8 -14 4 -5 -3 -9 0 -9 6 0 15 23 7 26 -8z m-394 -267 c9 -17 8
-17 -11 3 -12 12 -25 22 -29 22 -16 1 -53 40 -47 51 8 12 69 -42 87 -76z m-59
-12 c4 -3 2 -12 -3 -18 -11 -13 -2 -78 9 -70 4 2 13 -1 21 -7 12 -8 12 -9 -2
-4 -10 3 -18 0 -18 -6 0 -16 -31 13 -41 39 -13 35 14 87 34 66z m-1762 -140
c13 -16 12 -17 -3 -4 -10 7 -18 15 -18 17 0 8 8 3 21 -13z m-560 -525 c0 -117
0 -512 -1 -878 -1 -748 4 -701 -77 -729 -89 -32 -129 7 -173 167 -18 64 -47
171 -66 236 -75 266 -282 1141 -272 1151 6 6 572 263 581 264 4 1 7 -95 8
-211z m-1841 -592 c0 -2 -8 -10 -17 -17 -16 -13 -17 -12 -4 4 13 16 21 21 21
13z m-2153 -238 c297 -310 288 -297 299 -418 3 -25 14 -132 25 -239 17 -160
18 -196 7 -206 -7 -7 -71 -38 -142 -69 -150 -66 -141 -69 -194 49 -146 331
-140 319 -159 304 -15 -13 -15 -12 -3 7 12 20 3 45 -89 252 -56 127 -101 241
-99 253 2 17 29 33 133 80 72 32 135 58 141 58 7 1 43 -32 81 -71z m3194 -265
c13 -16 12 -17 -3 -4 -10 7 -18 15 -18 17 0 8 8 3 21 -13z m-2860 -150 c13
-16 12 -17 -3 -4 -17 13 -22 21 -14 21 2 0 10 -8 17 -17z m446 -615 c-3 -8 -6
-5 -6 6 -1 11 2 17 5 13 3 -3 4 -12 1 -19z m2747 -325 c-2 -24 4 -42 14 -51
15 -11 14 -12 -4 -3 -12 6 -24 18 -28 27 -10 27 -7 64 7 64 8 0 12 -13 11 -37z
m2226 -806 c0 -2 -10 -12 -22 -23 l-23 -19 19 23 c18 21 26 27 26 19z m-770
-771 c0 -2 -8 -10 -17 -17 -16 -13 -17 -12 -4 4 13 16 21 21 21 13z"/>
<path d="M7271 14339 c-41 -12 -130 -100 -236 -233 -44 -55 -98 -120 -120
-146 -22 -26 -74 -88 -115 -140 -110 -136 -231 -283 -313 -381 -80 -96 -106
-155 -106 -239 -1 -93 22 -125 206 -303 93 -89 205 -198 250 -242 l83 -80
-375 -353 c-253 -238 -382 -367 -396 -395 -78 -153 19 -345 186 -371 22 -3
121 -10 220 -16 99 -6 203 -12 230 -15 28 -2 192 -14 365 -25 173 -11 518 -34
766 -50 530 -35 522 -36 610 54 77 79 96 191 49 289 -17 36 -268 282 -763 748
l-142 134 72 70 c40 39 155 148 255 243 161 154 184 179 203 228 24 65 25 116
5 173 -8 23 -80 139 -161 259 -187 276 -333 492 -413 610 -70 103 -108 145
-155 169 -37 19 -157 27 -205 12z m195 -854 c65 -97 129 -191 140 -208 l22
-33 -166 -154 c-91 -85 -168 -154 -171 -152 -19 11 -301 285 -301 293 0 5 52
73 116 150 63 77 141 172 172 210 31 38 59 69 62 69 4 0 60 -79 126 -175z m36
-1458 c81 -77 147 -141 145 -142 -1 -1 -121 6 -267 16 -146 10 -293 19 -327
20 -35 1 -63 5 -63 9 0 4 68 71 151 148 l152 141 30 -25 c17 -15 98 -89 179
-167z"/>
<path d="M12433 10194 c-4 -10 6 -27 25 -47 31 -30 32 -31 52 -12 l20 18 -27
29 c-30 31 -60 36 -70 12z"/>
<path d="M12373 10134 c-3 -9 4 -25 18 -39 23 -23 25 -23 47 -7 21 16 21 19 7
40 -19 26 -63 30 -72 6z"/>
<path d="M12262 10021 c-8 -4 -12 -18 -10 -30 l3 -21 33 20 c33 20 35 40 4 40
-9 0 -23 -4 -30 -9z"/>
<path d="M9253 13033 c-7 -2 -13 -18 -13 -34 0 -22 6 -32 23 -38 32 -13 41 2
27 43 -12 36 -15 39 -37 29z"/>
<path d="M9638 10413 c7 -3 16 -2 19 1 4 3 -2 6 -13 5 -11 0 -14 -3 -6 -6z"/>
<path d="M9624 7656 c-29 -22 -13 -24 26 -4 26 13 30 18 14 18 -11 0 -29 -6
-40 -14z"/>
<path d="M9426 7203 c-4 -9 0 -23 9 -32 13 -14 15 -12 15 17 0 34 -14 43 -24
15z"/>
<path d="M9366 7143 c-4 -11 4 -28 26 -50 35 -36 48 -31 48 19 0 41 -61 67
-74 31z"/>
</g>
</svg>
